<svg viewBox="0 0 1195 613" fill="none" xmlns="http://www.w3.org/2000/svg">
<g id="background">
<g id="mountain5" class="mountain">
<mask id="path-1-inside-1_73_5" fill="white">
<path d="M524 612C524 554.978 506.669 500.292 475.819 459.972C444.969 419.652 403.128 397 359.5 397C315.872 397 274.031 419.652 243.181 459.972C212.331 500.292 195 554.978 195 612L359.5 612H524Z"/>
</mask>
<path d="M524 612C524 554.978 506.669 500.292 475.819 459.972C444.969 419.652 403.128 397 359.5 397C315.872 397 274.031 419.652 243.181 459.972C212.331 500.292 195 554.978 195 612L359.5 612H524Z" fill="#3EAE57" stroke="black" stroke-width="12" mask="url(#path-1-inside-1_73_5)"/>
</g>
<g id="mountain4" class="mountain">
<mask id="path-2-inside-2_73_5" fill="white">
<path d="M1195 612.5C1195 583.989 1177.67 556.646 1146.82 536.486C1115.97 516.326 1074.13 505 1030.5 505C986.872 505 945.031 516.326 914.181 536.486C883.331 556.646 866 583.989 866 612.5L1030.5 612.5H1195Z"/>
</mask>
<path d="M1195 612.5C1195 583.989 1177.67 556.646 1146.82 536.486C1115.97 516.326 1074.13 505 1030.5 505C986.872 505 945.031 516.326 914.181 536.486C883.331 556.646 866 583.989 866 612.5L1030.5 612.5H1195Z" fill="#3EAE57" stroke="black" stroke-width="12" mask="url(#path-2-inside-2_73_5)"/>
</g>
<g id="mountain3" class="mountain">
<mask id="path-3-inside-3_73_5" fill="white">
<path d="M973 612C973 554.978 949.347 500.292 907.245 459.972C865.144 419.652 808.041 397 748.5 397C688.959 397 631.856 419.652 589.755 459.972C547.653 500.292 524 554.978 524 612L748.5 612H973Z"/>
</mask>
<path d="M973 612C973 554.978 949.347 500.292 907.245 459.972C865.144 419.652 808.041 397 748.5 397C688.959 397 631.856 419.652 589.755 459.972C547.653 500.292 524 554.978 524 612L748.5 612H973Z" fill="#3EAE57" stroke="black" stroke-width="12" mask="url(#path-3-inside-3_73_5)"/>
</g>
<g id="mountain2" class="mountain">
<mask id="path-4-inside-4_73_5" fill="white">
<path d="M612 611.5C612 585.376 600.621 560.322 580.368 541.85C560.114 523.378 532.643 513 504 513C475.357 513 447.886 523.378 427.632 541.85C407.379 560.322 396 585.376 396 611.5L504 611.5H612Z"/>
</mask>
<path d="M612 611.5C612 585.376 600.621 560.322 580.368 541.85C560.114 523.378 532.643 513 504 513C475.357 513 447.886 523.378 427.632 541.85C407.379 560.322 396 585.376 396 611.5L504 611.5H612Z" fill="#3EAE57" stroke="black" stroke-width="12" mask="url(#path-4-inside-4_73_5)"/>
</g>
<g id="mountain1" class="mountain">
<mask id="path-5-inside-5_73_5" fill="white">
<path d="M329 612C329 575.665 311.669 540.819 280.819 515.126C249.969 489.434 208.128 475 164.5 475C120.872 475 79.0307 489.434 48.1809 515.126C17.3312 540.819 6.58766e-06 575.665 0 612L164.5 612H329Z"/>
</mask>
<path d="M329 612C329 575.665 311.669 540.819 280.819 515.126C249.969 489.434 208.128 475 164.5 475C120.872 475 79.0307 489.434 48.1809 515.126C17.3312 540.819 6.58766e-06 575.665 0 612L164.5 612H329Z" fill="#3EAE57" stroke="black" stroke-width="12" mask="url(#path-5-inside-5_73_5)"/>
</g>
</g>
</svg>
