<?xml version="1.0" encoding="UTF-8"?><svg id="b" xmlns="http://www.w3.org/2000/svg" width="254.637" height="282.547" viewBox="0 0 254.637 282.547"><defs><style>.d{fill:#fce0cd;}.d,.e,.f,.g,.h,.i,.j,.k{stroke-width:0px;}.e{fill:none;}.f{fill:#d9d9d9;}.g{fill:#bdbdbd;}.h{fill:#645d5c;}.i{fill:#fff;}.j{fill:#efc0a0;}.k{fill:#f1f1f1;}</style></defs><g id="c"><path class="h" d="M2.318,254.873c2.581,0,5.162,0,7.742,0,6.2,0,12.401,0,18.601,0,8.904,0,17.809,0,26.713,0,10.754,0,21.509,0,32.263,0,11.776,0,23.552,0,35.328,0,11.883,0,23.765,0,35.648,0,11.072,0,22.145,0,33.217,0,9.434,0,18.868,0,28.303,0,6.945,0,13.889,0,20.834,0,3.538,0,7.076,0,10.615,0,.245,0,.49,0,.735,0,3.089,0,3.094-4.8,0-4.8-2.585,0-5.17,0-7.755,0-6.204,0-12.407,0-18.611,0-8.907,0-17.814,0-26.721,0-10.756,0-21.512,0-32.268,0-11.777,0-23.554,0-35.33,0-11.882,0-23.765,0-35.647,0-11.071,0-22.142,0-33.213,0-9.432,0-18.864,0-28.296,0-6.941,0-13.883,0-20.824,0-3.534,0-7.068,0-10.602,0-.244,0-.488,0-.732,0-3.089,0-3.094,4.8,0,4.8h0Z"/><path class="k" d="M106.671,140.838c7.01,12.45,17.273,29.51,22.529,38.349h1.394c7.801-13.096,26.542-44.007,29.566-51.618,6.879,1.804,15.123,4.614,22.527,8.368l21.973,12.506c10.49,18.188,17.601,34.244,22.435,50.521,2.742,9.235,3.557,19.693-1.408,27.949-4.975,8.273-15.783,11.876-25.266,10.075-9.484-1.801-17.605-8.181-23.45-15.864v41.006c-47.103,0-121.227,0-121.227,0-12.193-3.385-23.973-9.761-26.919-22.991-4.898-21.996,6.381-54.992,18.137-73.312,12.803-19.951,30.353-29.23,53.128-37.466,1.157,2.63,3.568,7.128,6.581,12.477Z"/><path class="g" d="M130.595,179.187c7.801-13.095,26.541-44.006,29.567-51.618,3.939,1.033,8.325,2.396,12.745,4.076-.355,1.095-.645,2.332-.926,3.972-.779,4.556-.674,9.882,1.767,14.237.166.296.375.642.635,1-1.69,1.904-3.547,3.996-3.547,3.996,1.473,5.943,2.921,11.997,4.256,17.599v15.681c-27.926,0-103.405,0-103.405,0,0,0,0-23.702-.003-46.65,8.373-5.242,17.826-9.293,28.407-13.12,3.849,8.752,21.594,38.191,29.11,50.826"/><path class="d" d="M168.86,65.537c1.334-1.282,3.13-1.763,4.668-1.709,3.346.118,4.77,1.928,5.382,2.99,1.829,3.172,1.752,9.016.524,12.633-.869,2.561-2.294,6.479-5.727,9.288-1.415,1.158-3.497,1.92-5.488,1.584,0,0-.135-.023-.378-.063-.65,1.896-1.463,3.582-1.737,4.415-1.161,3.152-6.743,12.949-14.234,19.035v4.714c-3.976,3.169-14.464,10.943-20.255,15.68h-3.3c-8.399-5.309-15.413-10.589-19.965-14.012v-3.701c-3.883-2.297-7.489-5.526-10.718-9.391-4.692-5.615-7.448-11.646-9.025-16.738-2.082.475-4.308-.305-5.796-1.523-3.433-2.809-4.858-6.727-5.727-9.288-1.228-3.616-1.305-9.461.524-12.633.613-1.063,2.036-2.872,5.382-2.99,1.538-.054,3.334.427,4.668,1.709,0,0-4.792-38.073,40.601-38.073s40.601,38.073,40.601,38.073Z"/><path class="h" d="M97.476,125.4c1.282-.398,2.49-.887,3.6-1.448,3.767-1.904,6.398-4.637,6.903-7.43,0,0,.02-.112.054-.317-3.761-2.288-7.26-5.446-10.401-9.206-4.692-5.615-7.448-11.645-9.026-16.742-2.081.48-4.307-.301-5.796-1.518-.37-.302-.716-.618-1.041-.943-1.397,2.261-2.413,4.901-2.867,8.319-.059.486-.109.989-.146,1.51-.071.982-.103,2.027-.087,3.142.062,3.694.997,7.473,1.177,11.167.171,3.678-.787,7.302-4.294,8.486-.14.047-.171.499-.164.616.008.281.132.545.281.787.429.67,1.13,1.169,1.8,1.574,3.912,2.4,9.936,3.818,16.302,2.852,1.284-.196,2.525-.484,3.704-.85Z"/><path class="k" d="M129.201,179.187c-6.707-11.276-21.561-35.935-27.419-47.329.521-1.304,3.52-8.805,4.418-11.135.337-.874,1.401-1.195,2.149-.632,4.552,3.423,11.566,8.703,19.965,14.012h3.3c5.792-4.738,16.279-12.511,20.255-15.68.775-.617,1.919-.249,2.206.699.766,2.529,1.559,4.975,2.785,9.164l2.627.834c-4.483,9.578-21.543,37.73-28.893,50.068"/><path class="h" d="M87.505,65.868c-1.316-1.264-3.089-1.739-4.606-1.686-.486.017-.931.07-1.338.152-.689-2.464-1.775-7.143-1.775-7.143-1.085-4.591-1.232-14.402-.044-20.152C84.084,15.73,105.526-1.181,127.995.066c6.791-.381,13.478.909,19.638,3.476,10.926,4.532,20.181,13.112,25.226,23.584.837,1.727,1.559,3.5,2.156,5.314.229.697.44,1.399.631,2.107.22.821.425,1.657.587,2.493,1.364,6.57,3.036,19.476.074,27.719-.715-.317-1.598-.538-2.688-.576-1.517-.053-3.29.421-4.606,1.686l-5.191-2.393c-5.548-3.671-11.253-10.247-13.603-14.188-1.621-2.718-4.77-8.554-6.352-12.686-15.157,12.14-29.846,24.295-54.902,28.159l-1.459,1.109Z"/><path class="j" d="M120.538,99.763c2.541,1.342,5.276,1.912,8.151,1.893,2.969-.019,5.918-.624,8.29-2.472.995-.775.875-2.591,0-3.394-1.055-.969-2.332-.827-3.394,0,.745-.58.236-.185.045-.062-.16.103-.325.198-.494.286-.222.116-.78.252-.103.072-.23.061-.454.174-.681.248-.623.2-1.261.332-1.906.435.357-.057.134-.019-.095.004-.187.019-.374.034-.562.046-.451.029-.903.041-1.355.038-.405-.002-.809-.016-1.213-.044-.185-.013-.371-.028-.556-.046-.086-.009-.765-.128-.182-.017-.6-.114-1.194-.22-1.781-.395-.25-.075-.493-.164-.739-.248-.583-.199.431.214-.096-.035-.305-.144-.606-.294-.905-.452-1.11-.586-2.66-.318-3.284.861-.586,1.109-.324,2.658.861,3.284h0Z"/><path class="j" d="M127.321,80.754c.348,1.328.682,2.676.882,4.035l-.086-.638c.024.186.034.37.015.557l.086-.638c-.013.087-.032.168-.061.25l.242-.573c-.026.058-.053.108-.088.161l.375-.486c-.041.05-.081.089-.132.13l.486-.375c-.102.065-.21.118-.32.169l.573-.242c-.176.073-.35.127-.539.157l.638-.086c-.17.02-.336.019-.506,0l.638.086c-.191-.027-.378-.073-.569-.099-.319-.1-.638-.114-.957-.043-.319.014-.617.109-.892.285-.498.291-.973.862-1.103,1.434-.14.614-.11,1.304.242,1.849.312.484.835,1.022,1.434,1.103.463.062.913.179,1.385.2.738.032,1.42-.197,2.078-.5.82-.378,1.463-1.133,1.681-2.016.185-.75.108-1.383-.019-2.134-.22-1.3-.52-2.589-.855-3.864-.152-.579-.588-1.133-1.103-1.434s-1.273-.429-1.849-.242c-1.25.404-2.018,1.651-1.676,2.952h0Z"/><path class="h" d="M106.302,69.238c-.674,2.19-.235,7.228,3.914,7.657,5.484-.033,5.775-6.124,3.929-8.987-1.511-2.345-5.955-3.32-7.844,1.331Z"/><path class="h" d="M150.215,69.238c.674,2.19.235,7.228-3.914,7.656-5.484-.033-5.776-6.124-3.93-8.988,1.511-2.345,5.955-3.32,7.844,1.331Z"/><path class="e" d="M146.709,118.975c0,1.241,0,2.098.135,4.051.087,1.116.173,2.319.587,3.406.548,1.424,1.299,2.665,2.492,3.637,1.434,1.155,2.896,1.963,4.474,2.675"/><path class="e" d="M101.86,133.245c2.04-.837,3.849-1.742,5.639-3.175,1.193-.972,1.944-2.213,2.492-3.637.414-1.087.5-2.29.587-3.406.144-1.953.135-2.81.144-4.051"/><path class="h" d="M169.212,90.255c-3.149,5.686-6.863,11.289-12.342,14.979-2.872,1.934-6.006,3.569-9.332,4.557-3.54,1.051-7.096,1.426-10.773,1.564-3.079.115-3.094,4.916,0,4.8,4.081-.153,8.121-.57,12.049-1.735,3.706-1.1,7.278-2.882,10.479-5.04,6.186-4.172,10.493-10.253,14.064-16.701,1.498-2.705-2.646-5.128-4.145-2.423h0Z"/><path class="h" d="M145.443,108.419c-2.215-2.57-6.331-2.732-9.41-2.141-3.529.678-6.39,3.491-6.176,7.237.133,1.65.738,3.195,1.968,4.346,1.188,1.112,2.742,1.826,4.346,2.067,3.601.541,7.309-.4,9.507-3.461,1.726-2.403,1.707-5.794-.235-8.049Z"/><path class="k" d="M174.041,91.824c-5.908,0-10.386-5.487-10.386-15.188s5.411-14.535,10.388-14.535c5.062,0,11.801,3.992,11.801,14.535,0,9.169-5.213,15.188-11.804,15.188Z"/><path class="i" d="M49.876,178.079c.309,20.541,1.141,74.312,1.464,94.589.07,4.37,3.629,7.867,7.999,7.865,26.143-.013,109.815-.013,135.957,0,4.37.002,7.93-3.495,7.999-7.865.324-20.277,1.155-74.049,1.464-94.59.067-4.466-3.529-8.116-7.995-8.116-26.788-.002-112.128,0-138.897,0-4.466,0-8.06,3.651-7.993,8.117Z"/><path class="f" d="M47.876,178.079c.27,17.918.547,35.835.825,53.753.146,9.436.293,18.871.441,28.307.056,3.586.113,7.172.17,10.758.037,2.313.159,4.506,1.327,6.577,1.258,2.229,3.408,3.913,5.853,4.649,1.729.52,3.554.41,5.337.409,1.389,0,2.779-.001,4.168-.002,3.406-.001,6.811-.002,10.217-.003,8.508-.002,17.016-.003,25.525-.004,19.091-.002,38.183-.001,57.274,0,8.07,0,16.141.002,24.211.004,3.077,0,6.154.002,9.23.003,1.57,0,3.174.096,4.725-.183,2.544-.458,4.799-1.979,6.296-4.066,2.384-3.323,1.856-7.72,1.917-11.6.064-4.042.127-8.084.19-12.126.154-9.867.308-19.735.46-29.602.151-9.79.302-19.581.452-29.371.061-3.978.122-7.956.182-11.934.063-4.167.63-8.495-2.157-11.981-1.725-2.159-4.313-3.461-7.057-3.677-1.352-.106-2.735-.03-4.091-.03-3.124,0-6.248,0-9.371,0-8.107,0-16.215,0-24.322,0-19.124,0-38.248,0-57.371,0-8.61,0-17.219,0-25.829,0-6.198,0-12.412-.127-18.609,0-5.56.115-9.957,4.547-9.993,10.117-.017,2.574,3.983,2.577,4,0,.014-2.254,1.131-4.28,3.12-5.387,1.515-.842,3.177-.73,4.846-.73,2.912,0,5.823,0,8.735,0,7.598,0,15.196,0,22.794,0,18.633,0,37.266,0,55.899,0,15.337,0,30.674,0,46.011,0,1.273,0,2.564-.061,3.835.008,2.206.12,4.208,1.504,5.123,3.514.744,1.634.508,3.487.482,5.232-.026,1.709-.052,3.417-.078,5.126-.133,8.713-.266,17.426-.401,26.139-.283,18.391-.568,36.783-.859,55.174-.054,3.409.646,7.717-2.363,10.1-2.366,1.874-5.959,1.276-8.798,1.275-7.02-.003-14.039-.004-21.059-.005-18.242-.003-36.484-.003-54.726-.003-16.147,0-32.295.002-48.442.007-1.389,0-2.779,0-4.168.002-1.522,0-3.132.167-4.585-.367-2.009-.739-3.5-2.57-3.84-4.681-.239-1.485-.1-3.114-.124-4.618-.13-8.208-.258-16.417-.386-24.625-.294-18.87-.586-37.74-.873-56.611-.049-3.184-.097-6.368-.145-9.552-.039-2.572-4.039-2.579-4,0Z"/><path class="d" d="M151.694,103.11c.011,1.569,1.013,3.182,2.374,3.874,2.531,1.286,7.131,1.541,9.952,2.182,4.863,1.106,6.778,3.048,9.392,7.003-4.409-.384-12.464-.971-15.368-.847-2.725.117-5.21,2.151-4.913,4.892.21,1.932.966,4.285,6.049,4.772,0,0,3.182.305,6.365.61l-5.492-.35c-2.862-.183-5.922.886-6.151,4.321-.242,3.63,2.475,4.894,4.763,5.456l2.204.542c-1.754.108-3.561.78-4.235,2.807-.693,2.086-.05,4.155,2.231,4.818,2.382.692,13.089,2.715,12.191,2.369-.092,3.154,1.445,5.525,3.529,7.55,1.237,1.201,2.689,2.332,4.43,2.772,1.633.412,6.86-.233,11.949-1.037,2.789-.441,4.772-2.951,4.538-5.765-.165-1.99-.282-3.404-.282-3.404-.094-6.008-.989-11.866-2.119-17.699-1.15-5.939-3.352-11.944-6.712-16.53-3.621-4.943-7.22-6.961-12.738-9.665-2.733-1.339-8.482-2.62-12.139-2.899-7.916-.604-9.457,1.973-9.757,3.544-.043.225-.063.455-.061.685Z"/><path class="j" d="M164.657,106.852c-2.557-.562-5.187-.731-7.725-1.389-.464-.12-1.248-.36-1.495-.47-.271-.12-.726-.435-.963-.767-.421-.589-.442-.997-.305-1.561.148-.611-.284.416.034-.068.059-.089.162-.208.193-.307-.087.281-.358.383-.053.094.089-.084.244-.194.313-.297-.154.23-.382.25-.051.051.151-.091.298-.184.454-.266.214-.113.549-.211.117-.068.411-.136.814-.271,1.238-.365.758-.17.616-.139,1.319-.193,1.438-.109,2.89-.057,4.324.081,3.006.291,6.286,1.036,9.244,2.063,1.224.425,2.625-.485,2.952-1.676.363-1.321-.447-2.525-1.676-2.952-3.293-1.144-6.774-1.837-10.237-2.206-2.917-.311-6.138-.346-8.891.806-1.77.74-3.218,2.01-3.851,3.86-1.028,3.004.673,6.576,3.475,7.939,3.204,1.558,6.886,1.567,10.309,2.32,1.265.278,2.596-.381,2.952-1.676.33-1.202-.405-2.673-1.676-2.952h0Z"/></g></svg>