<svg width="219" height="50" viewBox="0 0 219 50" fill="none" xmlns="http://www.w3.org/2000/svg">
<mask id="path-1-inside-1_21_106" fill="white">
<path fill-rule="evenodd" clip-rule="evenodd" d="M211 0C215.418 0 219 3.58172 219 8V42C219 46.4183 215.418 50 211 50H26.1703C21.752 50 18.1703 46.4183 18.1703 42V32.3131L0 25L18.1703 17.6869V8C18.1703 3.58172 21.752 0 26.1703 0H211Z"/>
</mask>
<path fill-rule="evenodd" clip-rule="evenodd" d="M211 0C215.418 0 219 3.58172 219 8V42C219 46.4183 215.418 50 211 50H26.1703C21.752 50 18.1703 46.4183 18.1703 42V32.3131L0 25L18.1703 17.6869V8C18.1703 3.58172 21.752 0 26.1703 0H211Z" fill="white"/>
<path d="M18.1703 32.3131L19.2904 29.5301L21.1703 30.2867V32.3131H18.1703ZM0 25L-1.1201 27.783L-8.03493 25L-1.1201 22.217L0 25ZM18.1703 17.6869H21.1703V19.7133L19.2904 20.4699L18.1703 17.6869ZM216 8C216 5.23858 213.761 3 211 3V-3C217.075 -3 222 1.92487 222 8H216ZM216 42V8H222V42H216ZM211 47C213.761 47 216 44.7614 216 42H222C222 48.0751 217.075 53 211 53V47ZM26.1703 47H211V53H26.1703V47ZM21.1703 42C21.1703 44.7614 23.4089 47 26.1703 47V53C20.0952 53 15.1703 48.0751 15.1703 42H21.1703ZM21.1703 32.3131V42H15.1703V32.3131H21.1703ZM1.1201 22.217L19.2904 29.5301L17.0502 35.0961L-1.1201 27.783L1.1201 22.217ZM19.2904 20.4699L1.1201 27.783L-1.1201 22.217L17.0502 14.9038L19.2904 20.4699ZM21.1703 8V17.6869H15.1703V8H21.1703ZM26.1703 3C23.4089 3 21.1703 5.23858 21.1703 8H15.1703C15.1703 1.92487 20.0952 -3 26.1703 -3V3ZM211 3H26.1703V-3H211V3Z" fill="black" mask="url(#path-1-inside-1_21_106)"/>
</svg>
